<svg id="Livello_1" data-name="Livello 1" xmlns="http://www.w3.org/2000/svg" viewBox="0 0 220.04 55.29"><defs><style>.cls-1{fill:#e30613;}</style></defs><polygon class="cls-1" points="220.04 0 186.64 0 131.91 55.29 165.31 55.29 220.04 0"/><path class="cls-1" d="M384.32,274.38l-8,8.05H346.89l21.64-21.87c8.84-8.84,18.78-9.57,25.79-9.57h73.54l-19,19.23-53.12-.09S388.25,270.46,384.32,274.38Z" transform="translate(-310.96 -227.13)"/><path class="cls-1" d="M387.59,248.18l84,.09,20.92-21.14H387.31c-6.45,0-23.37,1.9-35.72,14.25L311,282.43h30.88l24.71-25C373.56,249.87,383.94,248.18,387.59,248.18Z" transform="translate(-310.96 -227.13)"/></svg>